<?xml version="1.0" standalone="no"?>
<!DOCTYPE svg PUBLIC "-//W3C//DTD SVG 20010904//EN"
 "http://www.w3.org/TR/2001/REC-SVG-20010904/DTD/svg10.dtd">
<svg version="1.0" xmlns="http://www.w3.org/2000/svg"
 width="1359.540793pt" height="335.912860pt" viewBox="0 0 1359.540793 335.912860"
 preserveAspectRatio="xMidYMid meet">
<metadata>
Created by Potrace Professional 1.1m
</metadata>
<g transform="translate(-38.039296,335.983094) rotate(-360.00) scale(0.159292,-0.159292)"
fill="#000000" stroke="none">
<path d="M8702 2103 c-21 -9 -12 -16 22 -21 17 -2 36 -5 43 -6 7 -1 9 -1 4 0
-4 2 -11 10 -14 18 -6 17 -27 20 -55 9z"/>
<path d="M3647 1990 c0 -14 3 -25 7 -25 3 0 6 11 6 25 0 14 -3 25 -6 25 -4 0
-7 -11 -7 -25z"/>
<path d="M8720 1974 c0 -9 4 -17 10 -19 13 -6 16 0 11 19 -5 21 -21 21 -21 0z"/>
<path d="M1530 1798 c-29 -11 -130 -80 -168 -116 -15 -14 -39 -34 -53 -44 -48
-35 -67 -53 -73 -67 -3 -8 -10 -14 -15 -14 -5 0 -9 -2 -9 -5 0 -3 -10 -10 -22
-17 -12 -6 -22 -14 -22 -17 0 -7 -48 -53 -60 -57 -5 -2 -9 -8 -9 -14 0 -5 -5
-9 -10 -9 -5 0 -9 -3 -9 -7 0 -3 -21 -27 -46 -52 -56 -54 -86 -95 -86 -115 0
-13 3 -15 22 -15 17 0 23 4 31 18 5 10 14 22 19 26 6 5 16 20 23 33 7 14 17
24 23 24 6 0 18 8 26 19 27 33 128 138 133 138 7 0 32 25 40 40 3 7 16 17 28
24 12 7 30 20 39 30 9 10 20 19 24 19 4 0 10 6 13 14 4 8 16 18 28 23 12 4 27
15 34 25 7 10 19 20 27 23 8 2 25 12 38 23 l24 18 -2 -25 c-2 -13 -7 -29 -13
-35 -6 -6 -11 -16 -11 -22 0 -6 -4 -15 -9 -19 -5 -5 -10 -11 -10 -15 0 -5 -7
-17 -15 -29 -9 -12 -16 -26 -16 -33 0 -6 -9 -20 -19 -32 -10 -12 -19 -24 -19
-27 0 -3 -7 -13 -15 -23 -9 -9 -16 -20 -16 -24 0 -4 -7 -12 -15 -19 -9 -7 -18
-18 -20 -26 -3 -7 -15 -26 -27 -42 -13 -16 -35 -49 -50 -74 -15 -25 -30 -45
-32 -45 -3 0 -8 -7 -12 -16 -4 -8 -12 -17 -20 -19 -7 -2 -12 -9 -12 -16 0 -6
-10 -19 -22 -29 -12 -10 -26 -28 -31 -41 -5 -13 -12 -24 -15 -24 -4 0 -22 -24
-42 -53 -20 -29 -43 -59 -51 -66 -8 -8 -13 -17 -12 -20 2 -3 0 -7 -6 -9 -11
-4 -36 -44 -39 -61 -1 -7 1 -16 4 -20 10 -11 -4 -19 -16 -9 -9 8 -22 3 -22 -9
0 -4 -9 -14 -21 -22 -11 -9 -27 -25 -36 -37 -8 -12 -21 -28 -29 -37 -7 -9 -12
-20 -10 -25 2 -5 0 -8 -7 -8 -6 0 -21 -10 -33 -22 -12 -13 -25 -22 -28 -22 -3
0 -4 -5 -3 -11 3 -8 -3 -16 -18 -27 -11 -9 -25 -25 -31 -36 -5 -11 -12 -21
-15 -21 -7 0 -57 -51 -57 -59 0 -3 -5 -11 -11 -17 -9 -10 -9 -13 -1 -22 l8
-10 -17 4 c-10 2 -17 2 -17 -2 0 -4 -4 -7 -10 -7 -5 0 -11 -4 -13 -9 -2 -5 -7
-9 -12 -9 -5 0 -9 -6 -9 -12 0 -7 -14 -25 -31 -41 -18 -15 -32 -31 -32 -34 0
-4 -10 -12 -22 -17 -12 -6 -22 -15 -22 -19 0 -5 -4 -11 -8 -14 -5 -2 -19 -20
-32 -38 -13 -18 -26 -33 -28 -33 -2 0 -18 -20 -35 -43 -18 -24 -35 -44 -40
-44 -4 0 -8 -4 -8 -8 0 -11 -31 -46 -45 -51 -6 -2 -11 -9 -11 -16 0 -7 -3 -14
-6 -17 -9 -5 -8 -21 3 -32 7 -7 16 -9 30 -6 24 5 67 34 67 45 0 4 5 11 10 15
5 5 9 15 9 23 0 8 3 16 6 18 3 2 7 10 9 19 2 8 18 29 35 47 18 17 32 34 32 37
0 3 12 15 28 27 15 11 28 24 28 29 0 4 14 22 32 39 17 17 31 34 31 37 0 3 10
10 21 16 21 12 42 38 40 51 -1 3 5 7 13 8 7 1 19 10 25 20 6 10 14 19 17 19 7
0 35 28 35 35 0 4 24 34 52 64 7 8 19 17 27 20 8 3 15 10 15 14 0 5 8 15 19
23 10 7 19 18 19 23 0 5 5 12 12 17 7 4 13 10 13 13 0 8 47 54 55 54 3 0 8 8
10 18 4 16 16 33 73 101 7 8 12 17 12 20 0 3 3 6 6 6 4 0 12 10 19 23 7 13 29
39 50 57 20 18 45 45 55 60 27 39 67 85 72 82 2 -1 -1 -13 -7 -26 -12 -24 -15
-36 -13 -50 1 -13 39 -9 69 8 16 8 39 19 51 25 12 5 30 13 40 18 117 53 147
66 161 69 8 2 21 9 28 15 9 8 22 12 39 12 l25 -1 -8 -13 c-13 -17 -11 -43 3
-56 12 -11 25 -11 75 1 l15 4 -13 -22 c-9 -16 -11 -25 -7 -36 l6 -14 23 4 c30
6 50 16 74 38 25 23 41 49 41 65 0 23 17 22 40 -2 l21 -23 78 1 c92 0 177 12
212 30 13 7 29 12 33 10 5 -2 17 -1 26 3 11 4 18 4 20 0 2 -4 -2 -8 -9 -10
-14 -4 -17 -12 -7 -18 4 -2 6 -9 4 -15 -6 -19 12 -34 41 -34 34 0 57 6 93 22
77 35 100 42 114 37 13 -4 47 2 99 18 14 4 24 4 28 0 3 -3 11 -3 16 0 6 2 22
7 36 9 15 2 40 11 57 19 16 8 32 14 34 12 6 -3 -8 -27 -15 -27 -8 0 -29 -27
-30 -36 0 -13 -27 -52 -39 -56 -5 -1 -13 -13 -17 -25 -4 -11 -15 -27 -25 -34
-10 -7 -19 -19 -20 -27 -1 -8 -10 -17 -21 -23 -10 -4 -23 -14 -28 -21 -5 -7
-13 -18 -19 -23 -14 -15 -27 -38 -23 -42 2 -2 -1 -8 -7 -12 -7 -4 -17 -19 -24
-33 -7 -14 -14 -26 -16 -26 -3 0 -17 -13 -33 -28 -16 -16 -27 -29 -23 -29 13
0 6 -9 -12 -17 -11 -5 -19 -13 -19 -18 0 -5 -9 -14 -19 -20 -10 -6 -19 -13
-19 -17 0 -4 -11 -18 -25 -31 -18 -18 -24 -28 -21 -37 2 -10 -2 -16 -16 -25
-11 -6 -18 -14 -16 -16 5 -9 -4 -26 -13 -26 -5 0 -14 -10 -20 -22 -7 -12 -19
-26 -27 -30 -9 -4 -16 -12 -16 -18 0 -5 -5 -14 -11 -20 l-11 -12 10 -11 c14
-16 41 -16 61 0 9 7 19 13 22 13 4 0 11 6 16 14 5 8 18 24 29 36 11 11 19 24
19 27 0 4 8 16 16 28 9 11 16 26 14 32 -1 5 5 16 13 22 7 6 14 16 14 22 0 6
24 34 53 62 30 28 54 54 54 59 0 5 9 18 21 31 11 12 19 25 18 29 -2 5 0 8 5 8
4 0 6 4 4 8 -3 9 13 23 27 23 5 1 14 7 19 14 5 7 13 17 17 21 4 5 8 13 8 18 0
10 29 45 67 81 11 11 22 27 24 37 6 27 17 28 49 5 21 -15 31 -19 37 -14 4 4
15 8 24 9 11 2 15 5 13 15 -1 7 -3 36 -5 66 l-3 53 19 19 c11 10 20 21 20 25
0 17 99 79 127 79 5 0 11 4 13 9 2 5 9 9 16 9 8 0 13 4 13 10 0 5 3 9 6 9 4 0
12 6 19 13 7 7 21 12 31 12 17 0 49 19 59 36 3 5 11 8 18 8 8 0 20 6 28 14 16
14 37 28 54 34 6 2 11 6 11 9 0 4 4 6 8 6 10 0 32 23 38 39 2 6 9 11 16 11 8
0 16 9 24 27 18 39 18 62 -1 82 l-16 17 -42 -4 c-26 -2 -49 -8 -60 -16 -9 -6
-19 -12 -22 -12 -3 0 -19 -11 -34 -25 -16 -14 -32 -25 -36 -25 -3 0 -17 -10
-30 -21 -13 -12 -38 -35 -55 -51 -17 -15 -35 -28 -39 -28 -4 0 -11 -8 -16 -18
-5 -9 -12 -16 -15 -16 -10 2 -45 -36 -47 -51 -2 -9 -9 -14 -24 -16 -15 -2 -20
-5 -14 -8 6 -4 3 -11 -14 -27 -12 -12 -25 -21 -29 -21 -3 0 -6 -4 -6 -8 0 -8
-29 -23 -69 -37 -12 -4 -28 -11 -35 -16 -6 -4 -19 -8 -28 -8 -9 0 -19 -3 -23
-7 -4 -3 -28 -12 -54 -18 -26 -6 -51 -14 -55 -16 -11 -7 -44 9 -44 22 0 5 7
17 16 25 13 12 16 20 14 41 l-2 25 -23 6 c-18 4 -31 3 -54 -5 -16 -5 -44 -12
-63 -14 -18 -3 -37 -9 -42 -14 -5 -5 -13 -7 -18 -6 -5 2 -14 -2 -21 -8 -8 -7
-16 -12 -20 -12 -4 0 -6 -3 -6 -7 0 -3 -5 -6 -11 -6 -5 0 -17 -4 -26 -9 -9 -5
-32 -14 -51 -20 -19 -5 -43 -14 -54 -18 -31 -14 -130 -29 -163 -26 -17 1 -39
6 -49 10 l-18 7 3 29 c2 17 6 42 8 57 2 14 2 27 -1 27 -51 9 -91 -6 -135 -52
-16 -17 -34 -30 -40 -30 -5 0 -10 -3 -10 -6 0 -4 -10 -16 -22 -28 -23 -23 -53
-31 -53 -14 0 9 16 29 24 29 11 0 45 38 45 49 0 15 -10 24 -15 14 -2 -3 -13
-4 -24 -2 -11 1 -33 -2 -49 -7 -15 -5 -33 -10 -39 -10 -6 0 -22 -7 -35 -15
-13 -8 -39 -18 -57 -22 -19 -4 -38 -10 -43 -14 -4 -4 -29 -14 -54 -23 -44 -15
-78 -28 -100 -40 -20 -10 -30 -6 -30 14 0 20 -16 31 -47 31 -19 0 -19 1 2 24
9 11 23 20 31 20 8 0 14 3 14 6 0 3 12 11 25 17 14 6 27 15 29 21 2 6 8 13 14
15 24 9 46 24 55 38 6 9 16 14 27 14 11 1 25 8 35 17 8 9 20 16 25 16 5 0 10
6 12 13 2 8 9 13 21 13 11 1 14 2 7 4 -9 2 -10 5 -4 12 4 4 11 9 16 9 5 0 15
4 23 9 24 15 121 114 133 134 7 11 15 20 20 20 4 0 17 12 30 27 19 23 23 33
24 61 l1 34 -44 -1 c-53 -1 -112 -20 -149 -46 -14 -10 -29 -19 -34 -19 -4 0
-8 -2 -8 -5 0 -2 -9 -10 -19 -16 -22 -13 -24 -6 -6 17 7 8 12 20 12 25 0 5 4
11 10 13 5 2 9 8 9 14 0 6 9 29 19 50 26 53 22 61 -38 74 -5 1 -20 -1 -33 -6z
m198 -145 c2 -2 0 -10 -5 -17 -5 -7 -9 -17 -9 -23 0 -5 -11 -18 -25 -28 -14
-10 -25 -20 -25 -23 -1 -7 -116 -122 -128 -126 -6 -2 -10 -7 -10 -11 0 -3 -4
-6 -9 -6 -5 0 -10 -5 -12 -12 -2 -6 -19 -19 -39 -29 -20 -10 -37 -22 -39 -26
-2 -5 -7 -9 -12 -9 -4 0 -13 -7 -20 -15 -7 -9 -17 -16 -23 -16 -5 0 -10 -3
-10 -6 0 -9 -17 -8 -22 0 -2 4 3 13 11 21 9 7 31 32 49 55 19 26 37 43 46 44
9 1 14 7 16 16 1 8 6 14 11 14 6 0 9 4 6 10 -2 6 4 12 17 19 27 13 46 29 51
44 5 13 43 44 119 95 50 34 55 36 62 29z m1549 -78 c6 -11 6 -15 -2 -19 -5 -3
-13 -15 -16 -26 -5 -15 -17 -26 -41 -41 -19 -12 -39 -28 -44 -36 -5 -8 -17
-18 -27 -23 -10 -5 -31 -17 -48 -26 -16 -9 -33 -17 -37 -17 -4 0 -12 -4 -19
-10 -13 -13 -54 -28 -57 -22 -2 3 10 16 26 29 17 14 35 33 42 43 7 11 27 29
44 41 17 12 39 30 47 39 19 20 106 80 118 81 4 0 11 -6 14 -13z m-874 -379
c-1 0 -11 -8 -23 -18 -34 -27 -43 -19 -18 17 24 33 32 37 37 18 3 -9 4 -17 4
-17z"/>
<path d="M4878 1714 c-44 -5 -62 -15 -66 -36 -9 -39 -16 -49 -70 -92 -11 -9
-23 -25 -27 -35 -5 -11 -10 -19 -13 -19 -6 0 -84 -77 -97 -96 -6 -9 -15 -17
-20 -17 -4 0 -11 -5 -14 -12 -4 -6 -29 -34 -55 -62 -44 -46 -69 -73 -130 -141
-10 -12 -26 -31 -35 -43 -9 -12 -26 -32 -38 -45 -30 -32 -38 -41 -38 -46 0 -2
-12 -16 -28 -31 -15 -15 -30 -33 -34 -40 -4 -7 -10 -13 -13 -13 -11 0 -7 23 6
34 8 7 12 17 11 23 -2 6 1 15 6 19 13 10 31 38 36 53 l4 13 -35 4 c-30 4 -39
2 -64 -11 -17 -9 -34 -16 -38 -16 -4 0 -8 -3 -8 -6 0 -4 -3 -7 -8 -7 -8 0 -73
-49 -98 -75 -7 -7 -16 -13 -19 -13 -3 0 -23 -14 -45 -31 -21 -17 -43 -31 -47
-31 -5 0 -9 -3 -9 -7 0 -10 -14 -22 -30 -27 -8 -3 -12 -7 -10 -10 1 -4 -5 -10
-15 -15 -28 -15 -113 -97 -117 -114 -2 -9 -10 -19 -18 -22 -31 -14 -52 -30
-52 -41 -1 -25 -3 -28 -15 -28 -8 0 -15 -6 -19 -16 -3 -8 -10 -15 -16 -15 -5
0 -9 -5 -9 -10 0 -5 -4 -9 -9 -9 -5 0 -20 -16 -32 -35 -13 -19 -26 -36 -29
-38 -3 -2 -5 -8 -5 -14 0 -6 -9 -19 -19 -28 -11 -10 -21 -26 -23 -35 -2 -9
-12 -30 -22 -45 -10 -16 -18 -32 -18 -36 0 -4 -2 -8 -5 -8 -3 0 -12 -20 -20
-45 -8 -25 -20 -61 -26 -80 -13 -35 -12 -55 5 -108 10 -34 38 -51 59 -38 7 4
23 8 37 8 28 0 51 8 79 29 11 8 23 15 26 15 4 0 8 4 10 9 2 5 8 9 12 9 5 0 17
8 28 18 10 9 39 34 64 55 24 20 49 46 55 58 7 11 15 20 19 20 4 0 10 4 13 9 3
5 21 27 40 48 18 21 43 49 54 61 12 13 21 28 21 34 0 6 5 12 12 14 7 3 13 9
13 16 0 6 15 26 34 45 19 20 36 43 38 52 3 9 7 16 11 16 8 0 53 50 70 78 7 11
14 21 16 23 2 1 15 17 29 34 13 17 27 34 31 38 3 3 16 19 28 34 11 16 26 34
33 41 6 7 17 20 24 29 12 16 36 23 97 28 20 1 62 11 111 25 16 5 34 9 39 9 5
0 22 7 38 16 18 10 38 15 56 15 16 0 31 4 35 9 4 5 17 11 29 13 12 2 35 11 52
19 16 8 37 15 46 15 9 -1 31 4 47 9 47 15 97 30 104 30 3 0 4 -10 2 -21 -3
-16 -1 -25 8 -36 11 -13 18 -15 45 -15 18 1 42 7 57 14 32 17 32 17 45 -5 8
-15 15 -19 34 -19 57 -2 100 1 102 7 1 3 19 6 41 6 27 0 43 3 54 10 9 7 23 12
31 13 29 1 78 14 108 27 16 7 35 12 42 12 6 0 42 9 79 20 67 19 81 20 67 4 -3
-5 -6 -20 -6 -33 2 -36 23 -47 88 -43 28 1 58 6 67 11 9 5 26 10 37 13 11 2
21 7 21 10 0 3 4 6 10 6 5 0 18 6 29 14 11 8 24 13 28 12 8 -2 45 13 64 25 6
3 14 7 19 9 5 2 22 9 36 16 34 15 33 15 33 -4 0 -12 -3 -16 -12 -16 -7 0 -13
-3 -13 -7 0 -8 -43 -63 -77 -99 -12 -13 -26 -33 -32 -46 -12 -27 -40 -50 -75
-62 -13 -4 -33 -16 -43 -26 -11 -9 -24 -18 -30 -20 -5 -2 -14 -11 -20 -21 -6
-11 -19 -20 -35 -26 -14 -4 -35 -17 -46 -27 -12 -10 -32 -24 -45 -31 -13 -7
-24 -16 -24 -21 0 -5 -6 -10 -14 -13 -18 -6 -40 -26 -52 -48 -5 -10 -13 -17
-18 -17 -5 0 -27 -20 -49 -45 -21 -25 -42 -48 -46 -52 -4 -4 -9 -12 -11 -18
-2 -6 -8 -11 -13 -11 -5 0 -13 -11 -19 -24 -5 -14 -15 -26 -22 -28 -8 -2 -13
-8 -13 -15 0 -7 -5 -19 -11 -28 -6 -8 -20 -31 -30 -51 -10 -20 -21 -36 -23
-36 -3 0 -3 -4 -1 -10 2 -6 -2 -13 -10 -19 -7 -5 -13 -15 -13 -21 0 -7 -3 -13
-6 -15 -3 -2 -7 -17 -10 -33 -2 -16 -8 -36 -14 -45 -15 -23 -4 -58 24 -72 24
-11 78 -15 84 -5 3 4 9 7 16 7 19 0 154 139 148 154 -2 6 2 12 11 16 8 3 20
15 27 25 6 10 14 18 17 18 2 0 4 4 4 8 0 5 10 18 22 30 14 13 20 23 15 25 -8
6 -2 19 9 19 4 0 13 10 20 22 6 12 15 22 20 22 5 0 8 5 8 12 0 6 5 13 10 15 5
2 9 8 9 13 0 5 7 15 16 21 9 7 16 17 16 23 0 16 19 47 32 51 5 2 12 11 14 21
2 11 8 19 16 21 7 2 15 9 17 15 2 6 8 16 13 21 26 29 40 50 40 61 0 12 13 33
21 33 9 0 32 30 41 51 10 24 76 100 87 100 3 0 15 8 26 19 12 10 25 19 28 19
4 0 18 5 32 12 13 7 28 13 31 13 4 0 11 3 15 7 12 13 150 57 159 52 3 -2 10 0
18 3 7 4 18 10 25 13 14 7 15 5 6 -14 -6 -10 -5 -15 1 -21 12 -12 90 -19 101
-10 5 4 16 8 25 9 9 1 19 4 22 7 2 2 13 4 24 4 10 0 22 2 25 6 4 3 18 7 32 9
l25 4 -2 -21 -3 -21 26 -7 c28 -7 144 0 163 11 5 3 27 7 48 10 20 2 46 8 56
12 29 13 145 30 195 29 48 -2 52 -3 42 -15 -11 -15 -13 -34 -2 -40 11 -7 112
-2 125 7 5 3 14 -1 23 -9 17 -16 43 -16 106 2 20 6 47 10 60 10 14 0 26 3 28
6 5 8 63 26 83 26 10 0 26 2 37 6 15 4 92 17 138 21 4 1 6 -8 5 -20 -2 -17 3
-25 24 -46 22 -21 29 -24 43 -20 9 2 22 4 29 5 6 0 18 5 24 11 7 6 15 11 18
11 2 0 5 4 5 9 0 8 48 35 62 35 4 0 5 5 3 10 -3 7 0 11 9 13 8 2 14 6 14 9 0
3 9 10 20 14 11 5 24 13 29 19 4 5 12 9 16 7 5 -2 18 1 31 6 19 8 23 8 34 0
10 -7 12 -13 10 -33 -5 -35 22 -62 70 -70 39 -6 165 -1 170 7 2 3 20 6 40 6
20 0 44 4 54 9 10 5 25 10 34 10 9 0 23 5 31 12 9 7 21 13 27 13 6 0 12 2 14
5 2 3 12 7 23 10 24 4 56 32 56 48 0 15 19 30 47 36 18 4 24 8 23 16 -1 6 4
11 13 14 26 6 46 58 38 101 l-3 21 -24 0 -23 0 0 -21 c-1 -51 -9 -71 -42 -101
-53 -47 -88 -74 -111 -84 -12 -5 -33 -14 -47 -20 -14 -6 -35 -13 -47 -16 -12
-2 -35 -8 -50 -14 -16 -5 -36 -9 -44 -9 -9 0 -19 -3 -24 -7 -11 -9 -83 -12
-93 -4 -5 4 -11 5 -14 4 -7 -5 -34 26 -29 33 1 3 0 7 -3 9 -3 2 -4 15 -2 28 4
31 -4 36 -61 41 -61 5 -122 -6 -154 -28 -14 -9 -34 -19 -46 -21 -11 -3 -24
-10 -28 -17 -4 -6 -11 -12 -15 -12 -4 0 -18 -9 -30 -19 -24 -21 -34 -21 -23
-1 5 10 5 15 -3 23 -11 11 -25 13 -31 3 -2 -3 -6 -5 -8 -3 -11 6 -64 9 -67 3
-2 -3 -12 -6 -22 -6 -10 0 -31 -2 -46 -6 -35 -8 -125 -31 -164 -42 -17 -4 -49
-8 -70 -8 l-39 0 -2 13 -2 14 -58 0 c-32 -1 -59 2 -59 5 0 13 -43 25 -79 22
-45 -3 -200 -22 -222 -26 -9 -2 -28 -5 -44 -6 -15 -2 -39 -6 -53 -10 -14 -4
-39 -8 -56 -9 -16 -1 -32 -4 -34 -7 -2 -3 -19 -6 -37 -5 -44 1 -44 1 -29 12 7
5 18 8 23 6 6 -3 9 2 9 15 l1 18 -33 4 c-34 3 -71 -2 -158 -22 -28 -7 -54 -13
-58 -14 -4 -1 -10 -3 -12 -6 -5 -5 -27 -6 -27 -1 0 2 4 12 9 23 6 10 9 20 8
20 -27 20 -88 17 -149 -7 -5 -2 -16 -5 -25 -5 -18 -3 -77 -22 -85 -29 -3 -3
-14 -5 -24 -5 -11 0 -17 -2 -15 -4 3 -3 -5 -8 -16 -12 -11 -5 -36 -14 -55 -21
-19 -7 -35 -13 -36 -13 -2 0 13 15 33 34 19 19 34 38 34 43 0 5 11 20 23 34
13 13 26 31 29 41 3 9 8 17 11 17 2 0 15 10 29 22 13 12 29 22 34 22 6 0 17 7
25 16 8 8 19 15 24 15 12 0 83 48 94 63 5 7 14 13 20 13 13 0 34 29 33 46 0 7
2 10 8 8 26 -10 57 26 69 79 11 45 4 51 -57 53 -35 1 -54 -2 -64 -8 -8 -5 -16
-8 -19 -6 -7 4 -115 -113 -124 -134 -4 -9 -20 -30 -36 -46 -16 -16 -29 -32
-29 -36 0 -14 -75 -79 -102 -89 -32 -12 -113 -46 -141 -59 -11 -5 -21 -12 -22
-15 -1 -4 -11 -8 -21 -9 -10 -1 -23 -4 -28 -6 -6 -2 -37 -13 -69 -24 -33 -11
-64 -21 -68 -23 -14 -5 -8 22 8 42 9 11 22 20 28 20 16 0 22 19 9 29 -6 5 -14
8 -18 8 -15 0 -122 -25 -157 -36 -43 -15 -65 -20 -78 -20 -7 0 -18 -3 -24 -6
-12 -6 -68 -20 -132 -32 -22 -5 -41 -10 -43 -13 -2 -3 -17 -6 -35 -6 -17 0
-36 -2 -42 -5 -6 -3 -26 -8 -44 -10 l-34 -5 4 23 c3 18 1 24 -9 29 -15 8 -69
3 -88 -7 -9 -5 -24 -9 -36 -10 -30 -2 -24 16 13 36 27 14 54 41 48 46 -7 6
-88 6 -92 0 -3 -4 -20 -9 -39 -12 -19 -2 -36 -6 -38 -8 -4 -6 -58 -24 -86 -30
-11 -2 -21 -7 -23 -12 -1 -4 -9 -8 -17 -8 -19 0 -77 -18 -109 -33 -31 -15 -75
-27 -102 -28 -11 -1 -30 -6 -41 -11 -20 -10 -136 -39 -192 -49 -33 -5 -45 7
-25 28 7 7 17 22 21 33 5 11 26 37 47 59 21 21 38 41 38 44 0 3 9 13 22 23 12
9 22 22 22 28 0 6 5 14 12 19 7 4 13 10 13 12 0 4 41 45 71 71 23 20 63 41 78
41 12 0 26 9 45 28 16 16 33 30 39 32 6 2 12 9 13 17 1 10 7 14 20 16 12 1 25
9 34 21 9 10 34 34 56 54 l41 35 29 1 c17 1 37 5 45 10 l15 8 -16 6 c-8 4 -20
13 -27 19 -10 10 -10 13 -3 17 6 4 6 6 1 6 -5 0 -8 7 -8 15 0 9 -7 20 -17 28
l-18 12 21 22 c14 14 20 26 18 32 -2 6 -6 10 -9 9 -2 0 -20 -3 -39 -5z m-119
-226 c-31 -30 -36 -32 -21 -8 13 21 27 32 38 33 5 0 -3 -11 -17 -25z m1651
-25 c0 -7 -7 -18 -15 -26 -7 -7 -14 -15 -14 -18 0 -13 -47 -50 -80 -63 -9 -4
-17 -11 -17 -16 0 -5 -3 -9 -6 -9 -11 0 -7 10 16 35 12 13 28 35 35 48 6 13
14 24 17 24 3 0 7 5 9 12 2 7 8 13 16 13 6 0 15 4 20 9 9 11 19 7 19 -9z
m-2292 -439 c0 -4 -2 -8 -5 -10 -8 -4 3 -63 14 -80 13 -19 13 -32 -2 -46 -7
-6 -13 -15 -13 -19 0 -4 -7 -12 -16 -18 -8 -5 -15 -15 -15 -22 0 -6 -8 -16
-16 -22 -9 -5 -16 -13 -16 -17 0 -3 -8 -13 -19 -22 -10 -9 -18 -20 -18 -25 0
-5 -17 -27 -38 -48 -21 -21 -38 -42 -38 -46 0 -5 -5 -9 -12 -9 -9 0 -13 -4
-13 -12 0 -14 -47 -79 -74 -102 -9 -8 -16 -19 -15 -25 1 -6 -3 -12 -12 -15 -7
-2 -16 -12 -19 -21 -3 -10 -13 -21 -21 -26 -9 -4 -16 -11 -16 -15 0 -4 -10
-16 -22 -27 -12 -11 -22 -24 -22 -28 0 -5 -10 -17 -23 -27 -12 -10 -45 -41
-72 -67 -27 -27 -52 -49 -55 -49 -4 0 -10 -8 -15 -17 -6 -11 -21 -23 -37 -30
-15 -6 -29 -15 -32 -20 -16 -27 -37 19 -29 64 4 17 7 37 8 45 7 35 12 56 18
62 3 4 9 26 14 48 5 25 14 47 23 56 23 25 56 72 56 80 0 3 5 9 12 13 6 3 14
15 18 25 4 10 21 32 38 50 25 24 30 32 22 35 -8 3 -8 6 5 22 18 23 28 27 42
18 12 -8 32 -4 32 7 0 3 -4 7 -10 8 -8 1 -5 8 13 30 13 15 32 33 42 39 10 6
18 16 18 23 0 7 6 14 12 16 7 2 13 10 14 18 2 9 7 15 18 16 9 1 18 6 21 11 2
5 9 9 13 9 5 0 30 19 55 44 25 24 49 43 53 43 4 1 9 5 11 10 2 5 13 13 26 18
12 6 22 13 22 17 0 3 3 5 6 3 4 -2 5 0 3 5 -2 6 6 13 27 22 35 15 39 16 39 8z
m1689 -174 c0 -1 -10 -13 -22 -25 -12 -12 -24 -29 -26 -39 -5 -20 -25 -47 -67
-90 -16 -16 -29 -36 -29 -43 0 -7 -8 -17 -16 -23 -9 -5 -16 -12 -16 -15 0 -4
-4 -11 -10 -17 -34 -38 -57 -74 -54 -81 1 -5 -2 -15 -8 -21 -12 -13 -17 -20
-39 -61 -8 -14 -18 -27 -23 -29 -6 -2 -14 -14 -19 -26 -5 -12 -14 -22 -19 -22
-6 0 -11 -9 -13 -22 -3 -12 -6 -22 -9 -22 -2 0 -9 -10 -16 -22 -7 -13 -22 -32
-34 -42 -12 -11 -22 -24 -23 -30 0 -5 -9 -12 -22 -16 -12 -3 -28 -13 -36 -21
-10 -11 -16 -13 -22 -8 -11 9 -9 30 4 60 6 13 10 29 10 36 0 6 3 17 6 23 26
54 32 68 32 77 0 6 4 12 10 14 5 2 9 9 9 16 0 6 4 15 9 20 6 4 10 13 10 19 0
6 6 15 13 19 7 3 17 16 21 26 5 11 17 29 27 39 10 11 23 30 30 43 6 13 15 23
19 23 5 0 9 3 9 6 0 4 4 7 10 7 5 0 12 7 16 15 4 9 9 16 12 16 2 0 21 16 41
35 20 20 43 38 51 41 9 3 14 11 14 18 0 9 5 13 16 13 9 0 16 2 16 5 0 8 45 51
54 51 4 0 10 4 13 8 3 4 13 12 22 17 10 5 23 14 29 20 10 11 20 15 20 8z"/>
<path d="M2174 1579 c-22 -9 -44 -45 -35 -54 4 -4 17 0 35 8 24 12 29 17 31
35 3 23 -1 24 -31 11z"/>
<path d="M6293 1564 c5 -6 10 -14 10 -18 0 -7 19 -17 23 -12 6 6 -21 42 -32
42 l-12 0 11 -12z"/>
<path d="M3112 1115 c-10 -8 -11 -14 -8 -42 l5 -32 32 4 c18 3 34 7 37 9 3 2
5 18 6 35 l2 32 -31 1 c-20 1 -36 -2 -43 -7z"/>
<path d="M5883 462 c-9 -10 -3 -16 16 -16 10 0 15 3 15 12 0 15 -20 18 -31 4z"/>
<path d="M6378 66 c-6 -8 -6 -15 0 -35 8 -29 14 -32 52 -30 l29 2 -22 36 c-23
38 -42 47 -59 27z"/>
</g>
</svg>
